<?xml version="1.0" encoding="UTF-8" standalone="yes"?>
<!DOCTYPE svg PUBLIC "-//W3C//DTD SVG 1.1//EN" "http://www.w3.org/Graphics/SVG/1.1/DTD/svg11.dtd">

<svg width="367" height="126" viewBox="0 0 367 126" xmlns="http://www.w3.org/2000/svg" xmlns:xlink="http://www.w3.org/1999/xlink" version="1.1" baseProfile="full">
    <g transform="scale(1,-1) translate(0,-126)">
        <path d="M 681.590900 8.966000 L 683.925600 9.143600 L 686.226400 9.435900 L 688.490400 9.840200 L 690.714600 10.353600 L 692.896200 10.973100 L 695.032300 11.695900 L 697.120100 12.519000 L 699.156500 13.439700 L 701.138800 14.455000 L 703.064100 15.562000 L 704.929300 16.757800 L 706.731800 18.039500 L 708.468500 19.404300 L 710.136700 20.849300 L 711.733300 22.371500 L 713.255600 23.968200 L 714.700500 25.636300 L 716.065300 27.373000 L 717.347100 29.175500 L 718.542900 31.040800 L 719.649900 32.966000 L 720.665200 34.948300 L 721.585800 36.984800 L 722.409000 39.072500 L 723.131800 41.208600 L 723.751300 43.390200 L 724.264600 45.614500 L 724.668900 47.878400 L 724.961300 50.179200 L 725.138800 52.514000 L 725.198700 54.879800 L 725.138800 57.245500 L 724.961300 59.580300 L 724.668900 61.881100 L 724.264600 64.145000 L 723.751300 66.369300 L 723.131800 68.550900 L 722.409000 70.687000 L 721.585800 72.774700 L 720.665200 74.811200 L 719.649900 76.793500 L 718.542900 78.718700 L 717.347100 80.584000 L 716.065400 82.386500 L 714.700500 84.123200 L 713.255600 85.791300 L 711.733300 87.388000 L 710.136700 88.910200 L 708.468600 90.355200 L 706.731800 91.720000 L 704.929400 93.001800 L 703.064100 94.197600 L 701.138800 95.304600 L 699.156600 96.319800 L 697.120100 97.240500 L 695.032400 98.063700 L 692.896300 98.786400 L 690.714600 99.406000 L 688.490400 99.919300 L 686.226400 100.323600 L 683.925700 100.616000 L 681.590900 100.793500 L 679.225100 100.853300 L 676.859300 100.793500 L 674.524600 100.616000 L 672.223800 100.323600 L 669.959800 99.919300 L 667.735600 99.406000 L 665.554000 98.786500 L 663.417900 98.063700 L 661.330100 97.240500 L 659.293700 96.319800 L 657.311400 95.304600 L 655.386200 94.197600 L 653.520900 93.001800 L 651.718400 91.720000 L 649.981700 90.355200 L 648.313500 88.910200 L 646.716900 87.388000 L 645.194700 85.791400 L 643.749700 84.123200 L 642.384900 82.386500 L 641.103100 80.584000 L 639.907300 78.718700 L 638.800300 76.793500 L 637.785100 74.811200 L 636.864400 72.774800 L 636.041200 70.687000 L 635.318400 68.550900 L 634.698900 66.369300 L 634.185600 64.145100 L 633.781300 61.881100 L 633.735600 61.521300 L 633.251600 61.545700 L 257.865700 61.545700 L 201.403300 123.502400 L 517.983300 123.502400 L 518.299600 122.388300 L 519.330300 119.572400 L 520.620900 116.893300 L 522.156100 114.366300 L 523.920500 112.006800 L 525.898600 109.830300 L 528.075100 107.852100 L 530.434600 106.087800 L 532.961600 104.552600 L 535.640800 103.261900 L 538.456700 102.231300 L 539.911100 101.818300 L 541.393900 101.476100 L 542.903200 101.206500 L 544.437100 101.011600 L 545.993600 100.893300 L 547.570800 100.853400 L 549.147900 100.893300 L 550.704400 101.011600 L 552.238300 101.206500 L 553.747600 101.476100 L 555.230400 101.818300 L 556.684800 102.231300 L 559.500700 103.261900 L 562.179900 104.552500 L 564.706900 106.087700 L 567.066400 107.852100 L 569.242900 109.830300 L 571.221000 112.006800 L 572.985400 114.366200 L 574.520600 116.893300 L 575.811200 119.572400 L 576.841900 122.388300 L 577.254900 123.842700 L 577.597100 125.325600 L 577.866700 126.834900 L 578.061600 128.368700 L 578.179900 129.925200 L 578.219800 131.502400 L 578.179900 133.079600 L 578.061600 134.636100 L 577.866700 136.169900 L 577.597100 137.679300 L 577.254900 139.162100 L 576.841900 140.616500 L 575.811300 143.432400 L 574.520600 146.111600 L 572.985400 148.638600 L 571.221100 150.998000 L 569.242900 153.174500 L 567.066400 155.152700 L 564.706900 156.917100 L 562.179900 158.452300 L 559.500800 159.742900 L 556.684900 160.773500 L 555.230400 161.186500 L 553.747600 161.528800 L 552.238300 161.798300 L 550.704500 161.993200 L 549.148000 162.111600 L 547.570800 162.151500 L 545.993600 162.111600 L 544.437100 161.993200 L 542.903200 161.798300 L 541.393900 161.528800 L 539.911100 161.186500 L 538.456700 160.773500 L 535.640800 159.742900 L 532.961600 158.452300 L 530.434600 156.917100 L 528.075100 155.152700 L 525.898600 153.174600 L 523.920500 150.998100 L 522.156100 148.638600 L 520.620900 146.111600 L 519.330300 143.432400 L 518.299700 140.616500 L 517.983300 139.502400 L 265.568000 139.502400 L 303.046400 204.444700 L 517.983200 204.444700 L 518.299600 203.330600 L 519.330300 200.514700 L 520.620900 197.835500 L 522.156100 195.308500 L 523.920500 192.949000 L 525.898600 190.772500 L 528.075100 188.794400 L 530.434600 187.030000 L 532.961600 185.494800 L 535.640800 184.204200 L 538.456700 183.173500 L 539.911100 182.760500 L 541.393900 182.418300 L 542.903200 182.148800 L 544.437100 181.953900 L 545.993600 181.835500 L 547.570800 181.795600 L 549.147900 181.835500 L 550.704400 181.953900 L 552.238300 182.148800 L 553.747600 182.418300 L 555.230400 182.760500 L 556.684800 183.173500 L 559.500700 184.204200 L 562.179900 185.494800 L 564.706900 187.030000 L 567.066400 188.794400 L 569.242900 190.772500 L 571.221000 192.949000 L 572.985400 195.308500 L 574.520600 197.835500 L 575.811200 200.514700 L 576.841900 203.330600 L 577.254900 204.785000 L 577.597100 206.267800 L 577.866700 207.777100 L 578.061600 209.311000 L 578.179900 210.867400 L 578.219800 212.444600 L 578.179900 214.021800 L 578.061600 215.578300 L 577.866700 217.112200 L 577.597100 218.621500 L 577.254900 220.104300 L 576.841900 221.558700 L 575.811300 224.374600 L 574.520600 227.053800 L 572.985400 229.580800 L 571.221100 231.940300 L 569.242900 234.116800 L 567.066400 236.094900 L 564.706900 237.859300 L 562.179900 239.394500 L 559.500800 240.685100 L 556.684900 241.715800 L 555.230400 242.128800 L 553.747600 242.471000 L 552.238300 242.740500 L 550.704500 242.935500 L 549.148000 243.053800 L 547.570800 243.093700 L 545.993600 243.053800 L 544.437100 242.935500 L 542.903200 242.740500 L 541.393900 242.471000 L 539.911100 242.128800 L 538.456700 241.715800 L 535.640800 240.685100 L 532.961600 239.394500 L 530.434600 237.859300 L 528.075100 236.094900 L 525.898600 234.116800 L 523.920500 231.940300 L 522.156100 229.580800 L 520.620900 227.053800 L 519.330300 224.374700 L 518.299700 221.558700 L 517.983300 220.444700 L 298.426600 220.444700 L 297.366700 220.374300 L 296.338900 220.167600 L 295.354700 219.831500 L 294.425900 219.372500 L 293.564200 218.797500 L 292.781100 218.113100 L 292.088400 217.326200 L 291.497600 216.443400 L 247.094800 139.502400 L 103.289200 139.502400 L 21.583000 196.610600 L 20.888900 197.045300 L 20.168400 197.401000 L 19.427100 197.678600 L 18.670500 197.879200 L 17.904400 198.003700 L 17.134200 198.053200 L 15.604100 197.930800 L 14.125100 197.520000 L 13.418800 197.208900 L 12.742100 196.828700 L 12.100500 196.380400 L 11.499700 195.864900 L 10.945300 195.283300 L 10.442800 194.636500 L 10.008100 193.942400 L 9.652400 193.221900 L 9.374800 192.480600 L 9.174200 191.724000 L 9.049700 190.957900 L 9.000300 190.187700 L 9.122700 188.657600 L 9.533500 187.178700 L 9.844500 186.472300 L 10.224700 185.795600 L 10.673100 185.154000 L 11.188500 184.553200 L 11.770100 183.998800 L 12.416900 183.496400 L 96.187500 124.945300 L 97.239900 124.323600 L 98.368100 123.871700 L 99.551700 123.595800 L 100.770500 123.502400 L 179.755800 123.502400 L 248.419600 48.157100 L 249.016600 47.567300 L 249.666500 47.047300 L 250.363200 46.599800 L 251.100600 46.227600 L 251.872300 45.933300 L 252.672300 45.719800 L 253.494500 45.589600 L 254.332500 45.545700 L 633.251600 45.545700 L 634.069500 45.587000 L 634.187800 45.605000 L 634.698900 43.390300 L 635.318400 41.208700 L 636.041200 39.072500 L 636.864400 36.984800 L 637.785000 34.948300 L 638.800300 32.966100 L 639.907300 31.040800 L 641.103100 29.175500 L 642.384900 27.373100 L 643.749700 25.636300 L 645.194600 23.968200 L 646.716900 22.371600 L 648.313500 20.849300 L 649.981600 19.404400 L 651.718400 18.039500 L 653.520800 16.757800 L 655.386100 15.562000 L 657.311400 14.455000 L 659.293700 13.439700 L 661.330100 12.519100 L 663.417800 11.695900 L 665.554000 10.973100 L 667.735600 10.353600 L 669.959800 9.840200 L 672.223800 9.435900 L 674.524600 9.143600 L 676.859300 8.966000 L 679.225100 8.906200 Z M 677.682700 24.945200 L 676.160500 25.061000 L 674.660400 25.251600 L 673.184400 25.515200 L 670.311900 26.253800 L 667.558000 27.261700 L 664.937900 28.523900 L 662.466600 30.025200 L 660.159100 31.750700 L 658.030600 33.685300 L 656.096000 35.813800 L 654.370600 38.121300 L 652.869200 40.592600 L 651.607000 43.212700 L 650.599100 45.966600 L 649.860500 48.839100 L 649.596900 50.315100 L 649.406300 51.815200 L 649.290600 53.337300 L 649.251600 54.879800 L 649.290600 56.422200 L 649.406300 57.944400 L 649.596900 59.444500 L 649.860500 60.920500 L 650.599100 63.793000 L 651.607000 66.546800 L 652.869200 69.167000 L 654.370600 71.638300 L 656.096100 73.945700 L 658.030600 76.074300 L 660.159200 78.008800 L 662.466600 79.734300 L 664.937900 81.235700 L 667.558100 82.497900 L 670.311900 83.505800 L 673.184400 84.244400 L 674.660400 84.508000 L 676.160500 84.698600 L 677.682700 84.814300 L 679.225100 84.853300 L 680.767600 84.814300 L 682.289700 84.698600 L 683.789800 84.508000 L 685.265800 84.244400 L 688.138300 83.505800 L 690.892200 82.497900 L 693.512300 81.235700 L 695.983600 79.734300 L 698.291100 78.008800 L 700.419600 76.074300 L 702.354200 73.945700 L 704.079700 71.638300 L 705.581000 69.166900 L 706.843200 66.546800 L 707.851100 63.793000 L 708.589700 60.920500 L 708.853300 59.444400 L 709.043900 57.944400 L 709.159700 56.422200 L 709.198700 54.879800 L 709.159700 53.337300 L 709.043900 51.815100 L 708.853300 50.315100 L 708.589700 48.839000 L 707.851100 45.966500 L 706.843200 43.212700 L 705.581000 40.592600 L 704.079600 38.121300 L 702.354200 35.813800 L 700.419600 33.685300 L 698.291100 31.750700 L 695.983600 30.025200 L 693.512300 28.523900 L 690.892200 27.261700 L 688.138300 26.253800 L 685.265800 25.515200 L 683.789800 25.251600 L 682.289700 25.061000 L 680.767500 24.945200 L 679.225100 24.906200 Z" transform="scale(0.500000,0.500000) translate(-17.000000,0.000000)" fill="#828291" opacity="1.000000"></path>
    </g>
</svg>