<?xml version="1.0" encoding="UTF-8" standalone="yes"?>
<!DOCTYPE svg PUBLIC "-//W3C//DTD SVG 1.1//EN" "http://www.w3.org/Graphics/SVG/1.1/DTD/svg11.dtd">

<svg width="164" height="244" viewBox="0 0 164 244" xmlns="http://www.w3.org/2000/svg" xmlns:xlink="http://www.w3.org/1999/xlink" version="1.1" baseProfile="full">
    <g transform="scale(1,-1) translate(0,-244)">
        <path d="M 56.857200 8.119600 L 59.191900 8.297100 L 61.492700 8.589500 L 63.756700 8.993800 L 65.980900 9.507100 L 68.162500 10.126700 L 70.298600 10.849400 L 72.386400 11.672600 L 74.422800 12.593300 L 76.405100 13.608500 L 78.330300 14.715500 L 80.195600 15.911300 L 81.998100 17.193100 L 83.734800 18.557900 L 85.403000 20.002900 L 86.999600 21.525100 L 88.521800 23.121700 L 89.966800 24.789900 L 91.331600 26.526600 L 92.613400 28.329100 L 93.809200 30.194400 L 94.916200 32.119600 L 95.931500 34.101900 L 96.852100 36.138300 L 97.675300 38.226100 L 98.398100 40.362200 L 99.017600 42.543800 L 99.530900 44.768100 L 99.935200 47.032000 L 100.227600 49.332800 L 100.405100 51.667500 L 100.464900 54.033300 L 100.405100 56.399100 L 100.227600 58.733900 L 99.935200 61.034700 L 99.530900 63.298600 L 99.017600 65.522800 L 98.398100 67.704500 L 97.675300 69.840600 L 96.852100 71.928300 L 95.931500 73.964800 L 94.916200 75.947100 L 93.809200 77.872300 L 92.613400 79.737600 L 91.331600 81.540000 L 89.966800 83.276800 L 88.521800 84.944900 L 88.342500 85.133000 L 144.444300 165.399300 L 145.066000 166.451700 L 145.518000 167.579900 L 145.793800 168.763600 L 145.887200 169.982400 L 145.887200 480.000000 L 145.845900 480.817900 L 145.724700 481.612200 L 145.527500 482.378900 L 145.258500 483.113900 L 144.921600 483.813200 L 144.520900 484.472800 L 143.544100 485.656800 L 142.360100 486.633700 L 141.700500 487.034400 L 141.001200 487.371300 L 140.266200 487.640300 L 139.499500 487.837400 L 138.705200 487.958600 L 137.887200 488.000000 L 137.069200 487.958600 L 136.274900 487.837400 L 135.508200 487.640300 L 134.773200 487.371300 L 134.073900 487.034400 L 133.414300 486.633700 L 132.230300 485.656800 L 131.253500 484.472800 L 130.852800 483.813200 L 130.515900 483.113900 L 130.246900 482.378900 L 130.049700 481.612200 L 129.928500 480.817900 L 129.887200 480.000000 L 129.887200 172.501000 L 75.620400 94.860000 L 74.422800 95.473400 L 72.386400 96.394100 L 70.298600 97.217200 L 68.162500 97.940000 L 65.980900 98.559500 L 63.756700 99.072900 L 61.492700 99.477200 L 59.191900 99.769500 L 56.857200 99.947100 L 54.491400 100.006900 L 52.125600 99.947100 L 49.790900 99.769500 L 47.490100 99.477200 L 45.226100 99.072900 L 43.001900 98.559500 L 40.820300 97.940000 L 38.684100 97.217200 L 36.596400 96.394100 L 34.559900 95.473400 L 32.577700 94.458100 L 30.652400 93.351100 L 28.787100 92.155300 L 26.984700 90.873600 L 25.247900 89.508800 L 23.579800 88.063800 L 21.983200 86.541500 L 20.460900 84.944900 L 19.016000 83.276800 L 17.651100 81.540000 L 16.369400 79.737600 L 15.173600 77.872300 L 14.066600 75.947100 L 13.051300 73.964800 L 12.130700 71.928300 L 11.307500 69.840600 L 10.584700 67.704500 L 9.965200 65.522800 L 9.451800 63.298600 L 9.047500 61.034700 L 8.755200 58.733900 L 8.577600 56.399100 L 8.517800 54.033300 L 8.577600 51.667500 L 8.755200 49.332800 L 9.047500 47.032000 L 9.451800 44.768100 L 9.965200 42.543800 L 10.584700 40.362200 L 11.307500 38.226100 L 12.130700 36.138300 L 13.051300 34.101900 L 14.066600 32.119600 L 15.173600 30.194400 L 16.369400 28.329100 L 17.651100 26.526600 L 19.016000 24.789900 L 20.460900 23.121700 L 21.983200 21.525100 L 23.579800 20.002900 L 25.247900 18.557900 L 26.984700 17.193100 L 28.787100 15.911300 L 30.652400 14.715500 L 32.577700 13.608500 L 34.559900 12.593300 L 36.596400 11.672600 L 38.684100 10.849400 L 40.820300 10.126700 L 43.001900 9.507100 L 45.226100 8.993800 L 47.490100 8.589500 L 49.790900 8.297100 L 52.125600 8.119600 L 54.491400 8.059800 Z M 216.382100 139.373200 L 217.938600 139.491500 L 219.472400 139.686500 L 220.981700 139.956000 L 222.464500 140.298200 L 223.919000 140.711200 L 226.734900 141.741900 L 229.414000 143.032500 L 231.941000 144.567700 L 234.300500 146.332100 L 236.477000 148.310200 L 238.455200 150.486700 L 240.219500 152.846200 L 241.754700 155.373200 L 243.045400 158.052400 L 244.076000 160.868300 L 244.489000 162.322700 L 244.831200 163.805500 L 245.100800 165.314800 L 245.295700 166.848700 L 245.414000 168.405200 L 245.453900 169.982400 L 245.414000 171.559500 L 245.295700 173.116000 L 245.100800 174.649900 L 244.831200 176.159200 L 244.489000 177.642000 L 244.076000 179.096400 L 243.045400 181.912300 L 241.754700 184.591500 L 240.219500 187.118500 L 238.455200 189.478000 L 236.477000 191.654500 L 234.300500 193.632600 L 231.941000 195.397000 L 229.414000 196.932200 L 226.734900 198.222800 L 223.919000 199.253500 L 222.804900 199.569800 L 222.804900 478.931300 L 222.763600 479.749300 L 222.642300 480.543600 L 222.445200 481.310300 L 222.176200 482.045300 L 221.839300 482.744600 L 221.438600 483.404200 L 220.461700 484.588200 L 219.277700 485.565100 L 218.618100 485.965800 L 217.918800 486.302700 L 217.183800 486.571700 L 216.417100 486.768800 L 215.622800 486.890000 L 214.804900 486.931300 L 213.986900 486.890000 L 213.192600 486.768800 L 212.425900 486.571700 L 211.690900 486.302700 L 210.991600 485.965800 L 210.332000 485.565100 L 209.148000 484.588200 L 208.171100 483.404200 L 207.770400 482.744600 L 207.433500 482.045300 L 207.164500 481.310300 L 206.967400 480.543600 L 206.846200 479.749300 L 206.804900 478.931300 L 206.804900 199.569900 L 205.690800 199.253500 L 202.874900 198.222800 L 200.195700 196.932200 L 197.668700 195.397000 L 195.309200 193.632600 L 193.132700 191.654500 L 191.154600 189.478000 L 189.390200 187.118500 L 187.855000 184.591500 L 186.564400 181.912300 L 185.533700 179.096400 L 185.120700 177.642000 L 184.778500 176.159200 L 184.509000 174.649900 L 184.314100 173.116000 L 184.195700 171.559500 L 184.155800 169.982400 L 184.195700 168.405200 L 184.314100 166.848700 L 184.509000 165.314800 L 184.778500 163.805500 L 185.120700 162.322700 L 185.533700 160.868300 L 186.564400 158.052400 L 187.855000 155.373200 L 189.390200 152.846200 L 191.154600 150.486700 L 193.132700 148.310200 L 195.309200 146.332100 L 197.668700 144.567700 L 200.195700 143.032500 L 202.874900 141.741900 L 205.690800 140.711200 L 207.145200 140.298200 L 208.628000 139.956000 L 210.137300 139.686500 L 211.671200 139.491500 L 213.227700 139.373200 L 214.804900 139.333300 Z M 298.410200 139.373200 L 299.966700 139.491500 L 301.500600 139.686500 L 303.009900 139.956000 L 304.492700 140.298200 L 305.947100 140.711200 L 308.763000 141.741900 L 311.442200 143.032500 L 313.969200 144.567700 L 316.328700 146.332100 L 318.505200 148.310200 L 320.483300 150.486700 L 322.247700 152.846200 L 323.782900 155.373200 L 325.073500 158.052400 L 326.104200 160.868300 L 326.517200 162.322700 L 326.859400 163.805500 L 327.128900 165.314800 L 327.323800 166.848700 L 327.442200 168.405200 L 327.482100 169.982400 L 327.442200 171.559500 L 327.323800 173.116000 L 327.128900 174.649900 L 326.859400 176.159200 L 326.517200 177.642000 L 326.104200 179.096400 L 325.073500 181.912300 L 323.782900 184.591500 L 322.247700 187.118500 L 320.483300 189.478000 L 318.505200 191.654500 L 316.328700 193.632600 L 313.969200 195.397000 L 311.442200 196.932200 L 308.763000 198.222800 L 305.947100 199.253500 L 304.833000 199.569900 L 304.833000 477.862700 L 304.791700 478.680700 L 304.670500 479.475000 L 304.473400 480.241700 L 304.204400 480.976700 L 303.867500 481.676000 L 303.466800 482.335600 L 302.489900 483.519600 L 301.305900 484.496500 L 300.646300 484.897200 L 299.947000 485.234000 L 299.212000 485.503100 L 298.445300 485.700200 L 297.651000 485.821400 L 296.833000 485.862700 L 296.015100 485.821400 L 295.220800 485.700200 L 294.454100 485.503100 L 293.719100 485.234000 L 293.019800 484.897200 L 292.360200 484.496500 L 291.176200 483.519600 L 290.199300 482.335600 L 289.798600 481.676000 L 289.461700 480.976700 L 289.192700 480.241700 L 288.995600 479.475000 L 288.874300 478.680700 L 288.833000 477.862700 L 288.833000 199.569800 L 287.718900 199.253500 L 284.903000 198.222800 L 282.223900 196.932200 L 279.696900 195.397000 L 277.337400 193.632600 L 275.160900 191.654500 L 273.182700 189.478000 L 271.418400 187.118500 L 269.883200 184.591500 L 268.592500 181.912300 L 267.561900 179.096400 L 267.148900 177.642000 L 266.806700 176.159200 L 266.537100 174.649900 L 266.342200 173.116000 L 266.223900 171.559500 L 266.184000 169.982400 L 266.223900 168.405200 L 266.342200 166.848700 L 266.537100 165.314800 L 266.806700 163.805500 L 267.148900 162.322700 L 267.561900 160.868300 L 268.592500 158.052400 L 269.883200 155.373200 L 271.418400 152.846200 L 273.182700 150.486700 L 275.160900 148.310200 L 277.337400 146.332100 L 279.696900 144.567700 L 282.223900 143.032500 L 284.903000 141.741900 L 287.718900 140.711200 L 289.173400 140.298200 L 290.656200 139.956000 L 292.165500 139.686500 L 293.699300 139.491500 L 295.255800 139.373200 L 296.833000 139.333300 Z M 52.948900 24.098800 L 51.426800 24.214500 L 49.926700 24.405100 L 48.450700 24.668700 L 45.578200 25.407300 L 42.824300 26.415200 L 40.204200 27.677400 L 37.732900 29.178800 L 35.425400 30.904300 L 33.296900 32.838800 L 31.362300 34.967400 L 29.636800 37.274800 L 28.135500 39.746200 L 26.873300 42.366300 L 25.865400 45.120100 L 25.126800 47.992600 L 24.863200 49.468700 L 24.672600 50.968700 L 24.556800 52.490900 L 24.517800 54.033300 L 24.556800 55.575800 L 24.672600 57.098000 L 24.863200 58.598000 L 25.126800 60.074000 L 25.865400 62.946600 L 26.873300 65.700400 L 28.135500 68.320500 L 29.636800 70.791800 L 31.362300 73.099300 L 33.296900 75.227800 L 35.425400 77.162400 L 37.732900 78.887900 L 40.204200 80.389200 L 42.824300 81.651400 L 45.578200 82.659300 L 48.450700 83.397900 L 49.926700 83.661500 L 51.426800 83.852100 L 52.948900 83.967900 L 54.491400 84.006900 L 56.033800 83.967900 L 57.556000 83.852100 L 59.056100 83.661500 L 60.532100 83.397900 L 63.404600 82.659300 L 66.158400 81.651400 L 68.778600 80.389200 L 71.249900 78.887900 L 73.557400 77.162400 L 75.685900 75.227800 L 77.620400 73.099300 L 79.345900 70.791800 L 80.847300 68.320500 L 82.109500 65.700400 L 83.117400 62.946600 L 83.856000 60.074000 L 84.119600 58.598000 L 84.310200 57.098000 L 84.425900 55.575800 L 84.464900 54.033300 L 84.425900 52.490900 L 84.310200 50.968700 L 84.119600 49.468700 L 83.856000 47.992600 L 83.117400 45.120100 L 82.109500 42.366300 L 80.847300 39.746200 L 79.345900 37.274800 L 77.620400 34.967400 L 75.685900 32.838800 L 73.557400 30.904300 L 71.249900 29.178800 L 68.778600 27.677400 L 66.158400 26.415200 L 63.404600 25.407300 L 60.532100 24.668700 L 59.056100 24.405100 L 57.556000 24.214500 L 56.033800 24.098800 L 54.491400 24.059800 Z" transform="scale(0.500000,0.500000) translate(-4.000000,8.000000)" fill="#828291" opacity="1.000000"></path>
    </g>
</svg>