<?xml version="1.0" encoding="UTF-8" standalone="yes"?>
<!DOCTYPE svg PUBLIC "-//W3C//DTD SVG 1.1//EN" "http://www.w3.org/Graphics/SVG/1.1/DTD/svg11.dtd">

<svg width="160" height="115" viewBox="0 0 160 115" xmlns="http://www.w3.org/2000/svg" xmlns:xlink="http://www.w3.org/1999/xlink" version="1.1" baseProfile="full">
    <g transform="scale(1,-1) translate(0,-115)">
        <path d="M 114.374500 109.651200 L 115.168900 109.772400 L 115.935500 109.969600 L 116.670500 110.238600 L 117.369900 110.575500 L 118.029500 110.976200 L 119.213400 111.953100 L 120.190300 113.137000 L 120.591000 113.796600 L 120.927900 114.496000 L 121.196900 115.231000 L 121.394100 115.997600 L 121.515300 116.792000 L 121.556600 117.609900 L 121.556600 161.501100 L 122.670700 161.817400 L 125.486600 162.848000 L 128.165700 164.138700 L 130.692700 165.673900 L 133.052200 167.438200 L 135.228700 169.416400 L 137.206900 171.592900 L 138.971200 173.952400 L 140.506400 176.479400 L 141.797100 179.158500 L 142.827700 181.974400 L 143.240700 183.428900 L 143.582900 184.911700 L 143.852500 186.421000 L 144.047400 187.954800 L 144.165700 189.511300 L 144.205600 191.088500 L 144.165700 192.665700 L 144.047400 194.222200 L 143.852500 195.756100 L 143.582900 197.265400 L 143.240700 198.748200 L 142.827700 200.202600 L 141.797100 203.018500 L 140.506500 205.697700 L 138.971300 208.224700 L 137.206900 210.584200 L 135.228700 212.760700 L 133.052200 214.738800 L 130.692800 216.503200 L 128.165700 218.038400 L 125.486600 219.329000 L 122.670700 220.359600 L 121.216300 220.772700 L 119.733400 221.114900 L 118.224100 221.384400 L 116.690300 221.579300 L 115.133800 221.697700 L 113.556600 221.737600 L 111.979400 221.697700 L 110.422900 221.579300 L 108.889000 221.384400 L 107.379700 221.114900 L 105.896900 220.772700 L 104.442500 220.359700 L 101.626600 219.329000 L 98.947400 218.038400 L 96.420400 216.503200 L 94.061000 214.738800 L 91.884400 212.760700 L 89.906300 210.584200 L 88.141900 208.224700 L 86.606700 205.697700 L 85.316100 203.018500 L 84.285500 200.202600 L 83.872500 198.748200 L 83.530200 197.265400 L 83.260700 195.756100 L 83.065800 194.222200 L 82.947400 192.665700 L 82.907500 191.088500 L 82.947400 189.511300 L 83.065800 187.954900 L 83.260700 186.421000 L 83.530200 184.911700 L 83.872500 183.428900 L 84.285500 181.974500 L 85.316100 179.158600 L 86.606700 176.479400 L 88.141900 173.952400 L 89.906300 171.592900 L 91.884400 169.416400 L 94.060900 167.438300 L 96.420400 165.673900 L 98.947400 164.138700 L 101.626600 162.848100 L 104.442500 161.817400 L 105.556600 161.501000 L 105.556600 125.609900 L 16.000000 125.609900 L 15.182000 125.568600 L 14.387700 125.447400 L 13.621000 125.250300 L 12.886000 124.981200 L 12.186700 124.644400 L 11.527100 124.243600 L 10.343100 123.266800 L 9.366200 122.082800 L 8.965500 121.423200 L 8.628600 120.723900 L 8.359600 119.988900 L 8.162500 119.222200 L 8.041300 118.427900 L 8.000000 117.609900 L 8.041300 116.792000 L 8.162500 115.997600 L 8.359600 115.231000 L 8.628600 114.496000 L 8.965500 113.796600 L 9.366200 113.137000 L 10.343100 111.953100 L 11.527100 110.976200 L 12.186700 110.575500 L 12.886000 110.238600 L 13.621000 109.969600 L 14.387700 109.772400 L 15.182000 109.651200 L 16.000000 109.609900 L 113.556600 109.609900 Z M 191.678700 76.926200 L 192.473100 77.047500 L 193.239700 77.244600 L 193.974700 77.513600 L 194.674100 77.850500 L 195.333700 78.251200 L 196.517600 79.228100 L 197.494500 80.412100 L 197.895200 81.071700 L 198.232100 81.771000 L 198.501100 82.506000 L 198.698300 83.272700 L 198.819500 84.067000 L 198.860800 84.884900 L 198.860800 161.501100 L 199.974900 161.817400 L 202.790800 162.848000 L 205.469900 164.138700 L 207.996900 165.673900 L 210.356400 167.438200 L 212.532900 169.416400 L 214.511100 171.592900 L 216.275400 173.952400 L 217.810600 176.479400 L 219.101300 179.158500 L 220.131900 181.974400 L 220.544900 183.428900 L 220.887100 184.911700 L 221.156700 186.421000 L 221.351600 187.954800 L 221.469900 189.511300 L 221.509800 191.088500 L 221.469900 192.665700 L 221.351600 194.222200 L 221.156700 195.756100 L 220.887100 197.265400 L 220.544900 198.748200 L 220.131900 200.202600 L 219.101300 203.018500 L 217.810700 205.697700 L 216.275500 208.224700 L 214.511100 210.584200 L 212.532900 212.760700 L 210.356400 214.738800 L 207.997000 216.503200 L 205.469900 218.038400 L 202.790800 219.329000 L 199.974900 220.359700 L 198.520500 220.772700 L 197.037600 221.114900 L 195.528300 221.384400 L 193.994500 221.579300 L 192.438000 221.697700 L 190.860800 221.737600 L 189.283600 221.697700 L 187.727100 221.579300 L 186.193300 221.384400 L 184.683900 221.114900 L 183.201100 220.772700 L 181.746700 220.359700 L 178.930800 219.329000 L 176.251600 218.038400 L 173.724600 216.503200 L 171.365200 214.738800 L 169.188700 212.760700 L 167.210500 210.584200 L 165.446100 208.224700 L 163.910900 205.697700 L 162.620300 203.018500 L 161.589700 200.202600 L 161.176700 198.748200 L 160.834400 197.265400 L 160.564900 195.756100 L 160.370000 194.222200 L 160.251600 192.665700 L 160.211700 191.088500 L 160.251600 189.511400 L 160.370000 187.954900 L 160.564900 186.421000 L 160.834400 184.911700 L 161.176700 183.428900 L 161.589700 181.974500 L 162.620300 179.158600 L 163.910900 176.479400 L 165.446100 173.952400 L 167.210500 171.592900 L 169.188600 169.416400 L 171.365100 167.438300 L 173.724600 165.673900 L 176.251600 164.138700 L 178.930800 162.848100 L 181.746700 161.817400 L 182.860800 161.501000 L 182.860800 92.884900 L 16.000000 92.884900 L 15.182000 92.843600 L 14.387700 92.722400 L 13.621000 92.525300 L 12.886000 92.256300 L 12.186700 91.919400 L 11.527100 91.518700 L 10.343100 90.541800 L 9.366200 89.357800 L 8.965500 88.698200 L 8.628600 87.998900 L 8.359600 87.263900 L 8.162500 86.497200 L 8.041300 85.702900 L 8.000000 84.884900 L 8.041300 84.067000 L 8.162500 83.272700 L 8.359600 82.506000 L 8.628600 81.771000 L 8.965500 81.071700 L 9.366200 80.412100 L 10.343100 79.228100 L 11.527100 78.251200 L 12.186700 77.850500 L 12.886000 77.513600 L 13.621000 77.244600 L 14.387700 77.047500 L 15.182000 76.926200 L 16.000000 76.884900 L 190.860800 76.884900 Z M 267.533300 8.322200 L 269.868000 8.499700 L 272.168800 8.792000 L 274.432700 9.196300 L 276.657000 9.709700 L 278.838600 10.329200 L 280.974700 11.052000 L 283.062500 11.875200 L 285.098900 12.795800 L 287.081200 13.811100 L 289.006400 14.918100 L 290.871700 16.113900 L 292.674200 17.395600 L 294.410900 18.760400 L 296.079100 20.205400 L 297.675700 21.727700 L 299.197900 23.324300 L 300.642900 24.992400 L 302.007700 26.729200 L 303.289500 28.531600 L 304.485300 30.396900 L 305.592300 32.322100 L 306.607500 34.304400 L 307.528200 36.340900 L 308.351400 38.428600 L 309.074200 40.564700 L 309.693700 42.746400 L 310.207000 44.970600 L 310.611300 47.234600 L 310.903700 49.535300 L 311.081200 51.870100 L 311.141000 54.235900 L 311.081200 56.601700 L 310.903700 58.936400 L 310.611300 61.237200 L 310.207000 63.501100 L 309.693700 65.725400 L 309.074200 67.907000 L 308.351400 70.043100 L 307.528200 72.130900 L 306.607600 74.167300 L 305.592300 76.149600 L 304.485300 78.074800 L 303.289500 79.940100 L 302.007700 81.742600 L 300.642900 83.479300 L 299.198000 85.147500 L 297.675700 86.744100 L 296.079100 88.266300 L 294.410900 89.711300 L 292.674200 91.076100 L 290.871800 92.357900 L 289.006500 93.553700 L 287.081200 94.660700 L 285.098900 95.675900 L 283.062500 96.596600 L 280.974800 97.419800 L 278.838600 98.142600 L 276.657000 98.762100 L 274.432800 99.275400 L 272.168800 99.679700 L 269.868000 99.972100 L 267.533300 100.149600 L 265.167500 100.209400 L 262.801700 100.149600 L 260.467000 99.972100 L 258.166200 99.679700 L 255.902200 99.275400 L 253.678000 98.762100 L 251.496400 98.142600 L 249.360200 97.419800 L 247.272500 96.596600 L 245.236100 95.676000 L 243.253800 94.660700 L 241.328500 93.553700 L 239.463200 92.357900 L 237.660800 91.076100 L 235.924000 89.711300 L 234.255900 88.266400 L 232.659300 86.744100 L 231.137000 85.147500 L 229.692100 83.479400 L 228.327300 81.742600 L 227.045500 79.940200 L 225.849700 78.074900 L 224.742700 76.149600 L 223.727400 74.167300 L 222.806800 72.130900 L 221.983600 70.043200 L 221.260800 67.907000 L 220.641300 65.725400 L 220.128000 63.501200 L 219.895700 62.200500 L 219.193900 62.235900 L 16.000000 62.235900 L 15.182000 62.194600 L 14.387700 62.073400 L 13.621000 61.876200 L 12.886000 61.607200 L 12.186700 61.270300 L 11.527100 60.869600 L 10.343100 59.892800 L 9.366200 58.708800 L 8.965500 58.049200 L 8.628600 57.349900 L 8.359600 56.614900 L 8.162500 55.848200 L 8.041300 55.053900 L 8.000000 54.235900 L 8.041300 53.418000 L 8.162500 52.623600 L 8.359600 51.856900 L 8.628600 51.121900 L 8.965500 50.422600 L 9.366200 49.763000 L 10.343100 48.579100 L 11.527100 47.602200 L 12.186700 47.201500 L 12.886000 46.864600 L 13.621000 46.595600 L 14.387700 46.398400 L 15.182000 46.277200 L 16.000000 46.235900 L 219.193900 46.235900 L 219.895600 46.271300 L 220.127900 44.970600 L 220.641300 42.746400 L 221.260800 40.564800 L 221.983600 38.428700 L 222.806800 36.340900 L 223.727400 34.304500 L 224.742700 32.322200 L 225.849700 30.396900 L 227.045500 28.531600 L 228.327200 26.729200 L 229.692000 24.992400 L 231.137000 23.324300 L 232.659300 21.727700 L 234.255900 20.205400 L 235.924000 18.760500 L 237.660800 17.395700 L 239.463200 16.113900 L 241.328500 14.918100 L 243.253700 13.811100 L 245.236000 12.795800 L 247.272500 11.875200 L 249.360200 11.052000 L 251.496300 10.329200 L 253.678000 9.709700 L 255.902200 9.196400 L 258.166100 8.792100 L 260.466900 8.499700 L 262.801700 8.322200 L 265.167500 8.262300 Z M 263.625000 24.301300 L 262.102900 24.417100 L 260.602800 24.607700 L 259.126800 24.871300 L 256.254300 25.609900 L 253.500400 26.617800 L 250.880300 27.880000 L 248.409000 29.381400 L 246.101500 31.106800 L 243.973000 33.041400 L 242.038400 35.169900 L 240.312900 37.477400 L 238.811600 39.948700 L 237.549400 42.568800 L 236.541500 45.322700 L 235.802900 48.195200 L 235.539300 49.671200 L 235.348700 51.171300 L 235.232900 52.693500 L 235.193900 54.235900 L 235.232900 55.778300 L 235.348700 57.300500 L 235.539300 58.800600 L 235.802900 60.276600 L 236.541500 63.149100 L 237.549400 65.903000 L 238.811600 68.523100 L 240.312900 70.994400 L 242.038400 73.301900 L 243.973000 75.430400 L 246.101500 77.364900 L 248.409000 79.090400 L 250.880300 80.591800 L 253.500400 81.854000 L 256.254300 82.861900 L 259.126800 83.600500 L 260.602800 83.864100 L 262.102900 84.054700 L 263.625100 84.170400 L 265.167500 84.209400 L 266.709900 84.170400 L 268.232100 84.054700 L 269.732200 83.864100 L 271.208200 83.600500 L 274.080700 82.861900 L 276.834600 81.854000 L 279.454700 80.591800 L 281.926000 79.090400 L 284.233500 77.364900 L 286.362000 75.430400 L 288.296500 73.301800 L 290.022000 70.994400 L 291.523400 68.523100 L 292.785600 65.902900 L 293.793500 63.149100 L 294.532100 60.276600 L 294.795700 58.800600 L 294.986300 57.300500 L 295.102000 55.778300 L 295.141000 54.235900 L 295.102000 52.693400 L 294.986300 51.171300 L 294.795700 49.671200 L 294.532100 48.195200 L 293.793500 45.322700 L 292.785600 42.568800 L 291.523400 39.948700 L 290.022000 37.477400 L 288.296500 35.169900 L 286.362000 33.041400 L 284.233400 31.106800 L 281.926000 29.381300 L 279.454700 27.880000 L 276.834500 26.617800 L 274.080700 25.609900 L 271.208200 24.871300 L 269.732200 24.607700 L 268.232100 24.417100 L 266.709900 24.301300 L 265.167500 24.262300 Z" transform="scale(0.500000,0.500000) translate(-16.000000,0.000000)" fill="#828291" opacity="1.000000"></path>
    </g>
</svg>